<svg width="1418" height="642" viewBox="0 0 1418 642" fill="none" xmlns="http://www.w3.org/2000/svg">
<path d="M107.991 35.0139C107.164 34.4674 106.763 33.8146 106.363 33.1617C106.943 33.0049 107.523 32.8481 108.104 32.6914C108.208 33.4301 108.313 34.1687 107.991 35.0139Z" fill="#3D4853"/>
<path d="M29.1477 165.51C29.0842 163.978 29.2847 163.299 30.0796 161.869C32.1089 160.745 33.5437 160.371 34.9787 159.998C43.1869 160 51.3952 160.003 60.5306 159.806C66.9915 159.734 72.5255 159.861 79.6977 160.027C83.9094 162.312 86.9021 164.242 88.9574 166.878C91.9847 170.76 94.3439 175.144 97.2184 180.005C101.04 186.315 104.631 191.935 108.313 198.248C121.334 221.126 134.264 243.31 147.391 266.15C149.376 270.05 151.165 273.295 153.786 278.048C157.729 270.56 160.717 264.884 164.195 258.715C179.713 232.26 194.743 206.299 210.294 179.802C216.606 171.605 217.127 158.53 232.483 159.956C238.909 160.076 244.433 160.007 250.852 160.13C256.612 160.147 261.477 159.973 267.188 159.961C270.892 160.308 273.75 160.493 276.581 161.515C276.693 165.13 276.832 167.908 276.774 171.592C276.715 179.276 276.853 186.053 276.797 193.624C276.727 196.574 276.85 198.733 276.785 201.818C276.596 261.166 276.596 319.588 276.596 379.985C257.244 379.985 239.271 379.985 220.826 379.779C219.927 379.047 219.5 378.522 219.257 377.079C219.241 368.041 219.042 359.922 219.047 350.88C219.132 336.507 219.013 323.057 219.11 308.682C219.327 294.298 219.327 280.839 219.327 267.381C218.661 267.231 217.995 267.082 217.33 266.932C210.625 279.501 203.921 292.071 196.819 305.171C191.221 314.935 186.02 324.167 180.373 333.852C177.184 339.42 174.441 344.534 171.097 350.09C163.236 358.345 142.026 357.923 135.1 349.127C119.882 322.463 104.756 296.502 89.631 270.541C89.1019 270.698 88.5729 270.855 88.0438 271.012C88.0438 305.331 88.0438 339.649 87.7995 374.751C81.6099 376.816 75.6647 378.099 69.0109 379.126C65.3216 379.013 62.3409 379.157 58.4542 379.017C49.3073 378.924 41.0666 379.115 32.2332 378.952C30.8079 378.211 29.9752 377.823 29.1188 377.51C29.0951 377.584 29.2534 377.594 29.3586 376.743C29.15 371.895 28.8362 367.898 28.7067 362.972C28.7649 339.855 28.639 317.666 28.7103 294.551C28.7815 275.458 28.6553 257.29 28.7715 238.234C28.8802 231.23 28.7465 225.115 28.8945 218.093C29.0276 205.717 28.8789 194.247 28.9484 182.115C29.0129 180.552 28.8591 179.65 28.7052 178.748C28.9407 174.62 29.1762 170.492 29.1477 165.51Z" fill="#3D4753"/>
<path d="M1245.93 160.826C1248.23 160.357 1250.54 159.888 1254.34 159.13C1269.61 157.842 1283.39 156.844 1297.17 155.846C1299.34 156.073 1301.51 156.3 1304.49 156.414C1305.63 156.41 1305.97 156.521 1306.82 156.524C1327.43 159.888 1345.77 167.18 1362.48 181.054C1368.02 186.875 1372.57 191.882 1376.56 197.208C1374.32 199.374 1372.62 201.22 1370.29 203.305C1359.76 213.368 1349.87 223.191 1339.35 232.903C1337.3 231.878 1335.88 230.964 1334.14 229.49C1323.22 217.905 1311.04 209.768 1295.04 208.917C1255.54 206.818 1227.65 236.211 1232.05 276.344C1234.52 298.832 1244.05 318.099 1267.19 326.447C1290.43 334.828 1312.13 331.2 1330.53 313.839C1333.42 311.113 1336.35 308.437 1339.59 305.442C1347.43 312.486 1354.94 319.22 1362.5 325.86C1362.56 325.765 1362.37 325.888 1362.64 326.504C1364.89 327.93 1366.85 328.74 1369.3 330.028C1372.8 333.62 1375.82 336.734 1378.95 340.539C1375.6 345.412 1372.14 349.594 1368.19 353.919C1367.04 354.412 1366.7 354.957 1366.69 355.695C1366.09 355.98 1365.5 356.265 1364.06 357.219C1347.61 371.423 1329.09 378.81 1308.2 382.705C1306.05 383.042 1304.64 383.45 1302.28 383.722C1281.11 385.064 1261.29 383.317 1241.48 376.294C1220.71 369.177 1205.89 354.987 1190.72 340.353C1186.49 333.665 1182.48 327.608 1178.37 320.81C1174.79 308.525 1171.31 296.982 1167.93 284.5C1168.05 272.106 1168.05 260.651 1168.4 248.521C1173.11 227.744 1181.31 209.434 1195.01 193.697C1202.14 187.762 1209.28 181.826 1217.51 175.197C1227.71 169.945 1236.82 165.386 1245.93 160.826Z" fill="#3D4753"/>
<path d="M34.7796 159.395C33.5439 160.37 32.109 160.744 29.9631 161.337C31.0282 160.636 32.8043 159.714 34.7796 159.395Z" fill="#647078"/>
<path d="M171.675 83.666C176.106 83.7706 180.536 83.8753 186.571 83.9796C189.082 83.8764 189.988 83.7737 191.688 83.8358C220.695 83.8543 248.907 83.7079 277.609 83.7243C278.775 83.7914 279.45 83.6958 280.982 83.7725C297.172 83.8782 312.505 83.8117 328.784 83.9017C340.04 83.9043 350.35 83.7503 361.5 83.7515C365.181 83.7906 368.022 83.6746 371.812 83.7172C389.206 83.8043 405.651 83.7327 423.043 83.8324C451.998 84.1887 480.006 84.3736 508.042 84.9792C508.071 85.3997 508.427 86.1667 508.14 86.9686C505.237 88.659 502.662 90.1428 499.997 90.3217C492.587 90.8193 485.141 90.7745 476.871 90.784C444.392 90.707 412.751 90.79 380.164 90.7129C348.428 90.67 317.639 90.7871 285.904 90.7383C260.313 90.6759 235.668 90.7792 211.023 90.8825C191.169 90.7035 171.314 90.5246 150.512 90.514C148.469 89.1892 147.374 87.696 146.122 85.6193C148.677 84.703 151.389 84.3701 155.438 84.0336C157.87 83.925 158.963 83.8201 160.877 83.8767C165.024 83.9141 168.349 83.7901 171.675 83.666Z" fill="#3D4753"/>
<path d="M1175.11 90.5934C1146.79 90.7386 1119.43 90.7144 1090.17 90.6707C1029.48 90.6955 970.686 90.7398 910.94 90.6039C891.557 90.3866 873.119 90.4617 854.685 90.1992C851.714 90.1569 848.765 88.6106 845.806 87.7595C846.091 86.255 846.375 84.7506 846.659 83.2461C863.618 83.2461 880.577 83.2461 898.395 83.4355C902.763 83.5235 906.273 83.422 910.621 83.5282C914.33 83.638 917.199 83.5401 921.014 83.609C964.359 83.7441 1006.76 83.7125 1050.11 83.8408C1066.81 83.9289 1082.57 83.8571 1099.27 83.9448C1107.77 83.9902 1115.35 83.8762 1123.6 83.9136C1125.19 83.9607 1126.11 83.8564 1127.02 83.752C1154.39 83.8349 1181.77 83.9178 1210.09 83.8407C1215.21 84.0892 1219.39 84.4977 1224.39 84.9864C1219.96 90.0733 1219.96 90.0709 1200.61 90.218C1192.42 90.2802 1184.24 90.355 1175.11 90.5934Z" fill="#3D4753"/>
<path d="M267.188 159.957C269.617 159.663 272.893 159.532 276.389 160.038C273.75 160.49 270.892 160.305 267.188 159.957Z" fill="#546069"/>
<path d="M147.725 572.73C138.039 567.343 128.354 561.957 118.045 556.23C116.164 554.513 114.905 553.136 113.196 551.411C118.933 544.176 125.12 537.289 132.464 530.643C139.566 532.933 145.513 534.982 151.459 537.031C171.308 543.384 180.077 537.55 180.368 517.223C180.661 496.787 180.433 476.343 180.433 454.731C165.377 454.731 150.252 454.731 133.836 454.731C133.836 443.302 133.836 433.02 133.703 421.85C162.759 420.963 191.948 420.963 221.883 420.963C222.135 425.804 222.587 430.422 222.581 435.04C222.539 464.808 222.485 494.576 222.194 524.342C222.149 528.971 220.866 533.588 219.689 539.649C211.49 561.076 196.925 572.473 175.085 573.715C166.015 574.23 156.848 573.107 147.725 572.73Z" fill="#3D4753"/>
<path d="M1147.51 240.41C1148.75 254.007 1149.7 266.914 1150.63 280.639C1149.53 286.917 1148.44 292.377 1146.99 299.07C1146.41 301.399 1146.2 302.496 1145.98 303.593C1144.55 307.127 1143.12 310.662 1141.11 315.375C1137.31 322.238 1134.09 327.921 1130.87 333.605C1125.58 339.711 1120.29 345.816 1114.05 352.784C1106.06 358.877 1099.03 364.107 1092 369.337C1080.93 373.333 1069.86 377.329 1057.2 381.607C1033.32 386.26 1011.44 383.784 989.112 377.833C962.396 369.194 942.51 352.816 926.212 331.11C925.228 329.433 924.304 328.302 923.137 326.462C908.416 298.923 906.524 270.474 911.945 240.45C922.99 203.36 947.035 178.726 982.687 163.437C1003.38 155.711 1024.06 154.628 1045.06 156.277C1052.7 157.763 1060.33 159.249 1069.32 161.228C1079.18 165.443 1087.69 169.164 1096.59 173.442C1109.01 184.986 1121.04 195.973 1133.08 206.961C1133.55 208.041 1134.03 209.121 1135.01 210.545C1139.41 220.5 1143.32 230.11 1147.51 240.41ZM991.242 223.456C989.247 225.742 987.155 227.953 985.271 230.324C966.251 254.257 970.262 298.879 993.204 317.67C1009.9 331.345 1029.38 334.032 1048.95 327.017C1070.06 319.454 1081.66 302.83 1085.35 280.969C1089.8 254.587 1079.34 228.905 1059.04 216.965C1038.18 204.693 1012.82 206.771 991.242 223.456Z" fill="#3D4753"/>
<path d="M910.621 83.5279C913.008 82.9869 916.234 82.6536 919.764 82.8811C917.199 83.5398 914.33 83.6376 910.621 83.5279Z" fill="#58646D"/>
<path d="M390.724 160.153C407.799 159.719 424.243 159.718 442.42 159.719C447.38 161.839 451.943 163.249 453.58 166.215C458.086 174.385 461.356 183.21 465.132 191.769C480.101 225.693 495.076 259.614 510.112 294.283C521.856 322.299 533.536 349.568 546.294 379.353C525.358 379.353 506.479 379.353 486.957 379.119C485.416 378.984 484.517 379.084 482.981 378.762C480.049 374.188 477.755 370.036 475.442 365.236C474.448 362.208 473.472 359.828 472.404 356.697C470.564 351.905 468.815 347.864 466.981 343C464.725 340.673 462.569 337.884 460.383 337.861C432.205 337.566 404.023 337.666 375.449 337.666C370.732 349.531 366.646 361.205 361.329 372.312C359.785 375.539 354.967 378.551 351.217 379.183C344.286 380.351 337.036 379.687 329.918 379.786C319.178 379.209 308.438 378.631 296.469 377.987C307.016 353.079 317.199 329.028 327.431 304.249C347.469 257.674 367.457 211.826 387.46 165.984C388.26 164.152 389.212 162.385 390.724 160.153ZM412.775 242.217C406.432 258.376 400.09 274.535 393.594 291.086C411.51 291.086 428.493 291.086 447.012 291.086C440.378 274.558 434.074 258.855 427.659 241.703C425.537 236.417 423.415 231.131 421.294 225.846C420.527 225.859 419.761 225.872 418.994 225.885C417.223 230.96 415.451 236.035 412.775 242.217Z" fill="#3D4753"/>
<path d="M321.686 575.074C306.893 570.382 292.101 565.69 276.22 560.255C267.549 551.954 259.967 544.398 252.385 536.842C250.035 530.492 247.684 524.143 244.869 517.235C238.768 488.62 242.707 462.797 263.711 441.496C268.831 436.303 275.478 432.563 281.942 427.641C304.89 415.037 328.494 415.071 353.949 421.14C362.461 425.284 369.652 428.849 377.196 432.992C382.796 438.547 388.041 443.524 393.613 449.103C396.945 454.35 399.951 458.995 403.066 464.398C414.926 500.304 408.224 531.032 379.764 556.816C374.993 559.712 370.896 562.501 366.048 565.349C356.902 568.19 348.507 570.972 339.261 573.694C336.269 574.195 334.127 574.757 331.33 575.046C328.403 575.157 326.131 575.54 323.42 575.451C322.55 575.011 322.118 575.042 321.686 575.074ZM365.137 492.104C361.577 468.875 349.245 455.431 330.121 453.93C309.038 452.276 293.532 462.427 287.855 482.478C283.033 499.51 286.42 515.21 299.16 527.997C309.279 538.155 322.083 540.595 335.945 537.187C353.532 532.863 364.653 516.291 365.137 492.104Z" fill="#3D4753"/>
<path d="M351.392 417.245C351.41 417.289 351.373 417.201 351.392 417.245Z" fill="#5B666E"/>
<path d="M1171 571.186C1143.83 571.344 1117.61 571.344 1090.07 571.344C1090.07 547.231 1090.07 523.925 1090.09 498.763C1090.11 471.591 1090.11 446.277 1090.11 420.784C1095.05 420.456 1098.74 420.21 1102.43 419.965C1111.96 419.965 1121.49 419.965 1132.94 419.965C1132.94 454.925 1132.94 488.995 1132.94 524.648C1133.09 527.133 1133.24 528.036 1133.39 528.939C1131.07 541.693 1141.43 534.353 1147.58 536.519C1166.47 536.755 1183.59 536.966 1200.73 538.045C1200.94 542.962 1201.11 547.011 1201.28 551.06C1201.28 557.268 1201.28 563.476 1201.28 571.027C1190.64 571.027 1181.29 571.027 1171 571.186Z" fill="#3D4753"/>
<path d="M1146.46 303.462C1146.2 302.497 1146.41 301.4 1147.03 299.893C1147.27 300.764 1147.11 302.047 1146.46 303.462Z" fill="#5B666E"/>
<path d="M644.652 38.2383C648.418 38.5813 651.362 39.1366 654.961 39.8154C654.961 50.4426 654.961 60.7138 654.961 71.8127C666.715 71.8127 677.737 71.8127 690.05 71.8127C690.05 60.8841 690.05 50.087 690.05 38.6151C697.718 38.6151 704.167 38.1829 710.489 38.8711C712.457 39.0853 714.082 42.3323 715.866 45.9376C715.866 75.3176 715.866 102.951 715.866 131.036C706.567 131.036 698.656 131.036 689.484 131.036C689.484 119.161 689.484 107.988 689.484 96.8098C677.519 96.8098 666.831 96.8098 655.78 96.8098C655.78 107.196 655.78 116.809 655.594 127.19C650.73 129.437 646.053 130.914 640.502 132.244C636.368 131.891 633.109 131.686 628.92 131.423C628.92 106.716 628.92 82.7602 628.92 58.8043C628.92 52.6255 628.92 46.4467 628.92 39.6748C634.658 39.2037 639.244 38.8271 644.652 38.2383Z" fill="#3D4753"/>
<path d="M555.285 60.3997C549.186 60.3997 543.087 60.3997 535.093 60.3997C538.573 52.6675 529.399 43.7772 542.191 39.1515C567.742 38.9531 592.462 38.9531 618.622 38.9531C618.622 46.2882 618.622 52.1533 617.585 58.9404C610.488 60.0489 604.427 60.2354 597.571 60.2568C592.217 59.6219 589.127 60.5666 590.641 66.8357C590.621 69.0918 590.757 70.6004 590.719 73.0077C590.683 79.9988 590.818 86.0912 590.754 93.109C590.536 99.0299 590.788 104.044 590.435 109.017C589.886 116.757 588.925 124.47 587.365 132.036C585.027 132 583.462 132.122 581.006 132.081C575.295 131.995 570.473 132.072 565.351 131.405C564.718 115.803 564.385 100.946 564.053 86.089C564.272 81.3317 564.492 76.5743 564.773 70.2497C564.764 67.1338 564.694 65.5852 564.77 63.2821C561.705 61.8182 558.495 61.109 555.285 60.3997Z" fill="#3D4753"/>
<path d="M860.586 328.189C875.829 328.189 891.073 328.189 907.04 328.189C907.04 345.615 907.04 361.475 907.04 379.085C897.55 379.085 888.158 379.085 876.98 379.035C832.387 378.986 789.581 378.986 746.032 378.986C746.032 370.81 746.048 364.81 746.03 358.809C745.892 312.875 745.748 266.941 745.78 220.18C745.841 216.553 745.727 213.752 745.793 210.137C745.848 193.763 745.723 178.202 745.763 162.2C745.928 161.758 745.945 160.818 746.839 160.632C752.587 160.201 757.442 159.955 763.21 159.9C770.353 159.994 776.583 159.897 782.813 159.801C790.371 159.991 797.928 160.181 806.508 161.161C807.688 162.847 807.846 163.742 807.813 165.566C807.648 217.634 807.705 268.775 807.654 319.915C807.649 324.973 807.589 329.324 814.749 329.108C830.023 328.647 845.306 328.478 860.586 328.189Z" fill="#3D4753"/>
<path d="M809.338 128.429C808.908 128.937 808.686 129.521 807.981 130.916C804.423 132.473 801.53 134.079 798.692 133.993C777.601 133.354 756.52 132.38 733.632 131.437C733.632 122.722 733.632 114.514 733.756 105.794C733.81 104.937 733.74 104.593 733.909 103.333C734.004 87.6263 733.859 72.8359 733.849 57.3602C733.894 55.7525 733.803 54.8302 733.943 53.1318C734.074 50.2163 733.975 48.0768 733.875 45.9373C735.694 43.7145 737.473 39.5969 739.339 39.558C761.077 39.106 782.829 39.2687 806.991 39.2687C805.439 47.1312 804.186 53.483 801.125 59.8858C786.29 59.9368 773.263 59.9368 760.286 59.9368C760.286 65.2932 760.286 69.1884 760.286 74.7934C774.106 74.7934 787.515 74.7934 800.924 74.7934C801.002 80.6503 801.08 86.5071 800.24 93.5356C786.453 94.7072 773.583 94.7072 760.242 94.7072C760.242 100.738 760.242 105.315 760.242 110.319C774.127 110.319 787.665 110.319 801.202 110.319C807.538 109.931 809.097 113.643 808.816 120.427C808.972 124.106 809.155 126.267 809.338 128.429Z" fill="#3D4753"/>
<path d="M809.968 128.211C809.155 126.268 808.972 124.106 809.063 121.166C809.757 122.922 810.178 125.457 809.968 128.211Z" fill="#626C72"/>
<path d="M1032.68 569.425C1028.66 560.147 1027.73 548.13 1021.35 543.682C1014.99 539.254 1003.14 542.401 993.704 542.271C987.589 542.186 981.373 542.847 975.376 541.995C964.284 540.417 958.039 544.406 956.02 556.719C952.85 562.363 950.813 569.94 947.614 570.446C934.491 572.526 921.013 572.452 906.535 573.232C909.275 565.525 911.484 559.312 914.091 552.487C916.471 546.975 918.452 542.074 920.947 536.68C925.508 526.491 929.556 516.796 933.604 507.101C945.417 480.595 957.425 454.17 968.877 427.515C971.167 422.186 973.513 419.748 979.692 420.09C990.516 420.689 1001.39 420.369 1013.19 420.539C1026.75 450.406 1039.37 480.168 1052.54 510.391C1059.73 526.567 1066.36 542.286 1073.01 557.996C1074.66 561.889 1076.37 565.753 1078.22 570.004C1062.42 570.004 1047.9 570.004 1032.68 569.425ZM996.758 474.613C995.462 471.798 994.165 468.983 992.028 464.343C985.541 480.535 979.811 494.839 973.704 510.084C986.664 510.084 998.016 510.084 1010.6 510.084C1006.02 498.227 1001.72 487.121 996.758 474.613Z" fill="#3D4753"/>
<path d="M323.42 575.45C323.858 575.922 323.615 576.376 323.505 576.605C322.903 576.563 322.488 576.206 321.917 575.418C322.118 575.04 322.55 575.009 323.42 575.45Z" fill="#4C5762"/>
<path d="M429.335 524.924C429.335 490.59 429.335 456.256 429.335 420.126C436.997 420.126 445.002 420.126 453.947 419.977C456.435 419.917 457.984 420.005 461.108 420.085C464.884 420.084 467.083 420.091 469.282 420.098C469.551 445.805 469.772 471.513 470.128 497.219C470.207 502.889 470.445 508.592 471.172 514.21C473.412 531.513 483.447 539.875 500.715 539.191C514.704 538.638 524.132 528.561 524.465 511.803C525.054 482.066 524.797 452.312 524.851 421.654C538.303 420.743 551.798 420.743 566.548 420.743C566.548 445.806 566.548 470.35 566.574 496.708C566.817 515.96 566.049 533.206 555.946 549.136C545.459 563.9 530.858 570.652 513.145 573.752C486.359 576.887 462.772 572.102 442.542 554.044C438.761 547.111 435.204 540.816 431.594 533.698C430.806 530.224 430.071 527.574 429.335 524.924Z" fill="#3D4753"/>
<path d="M469.035 419.515C467.083 420.09 464.884 420.083 461.873 419.935C463.636 419.507 466.211 419.22 469.035 419.515Z" fill="#58646D"/>
<path d="M752.049 514.841C752.049 483.711 752.049 452.581 752.049 420.951C771.755 419.757 790.513 415.852 802.2 436.343C805.607 440.597 808.054 444.927 811.123 448.78C824.235 465.241 837.53 481.561 852.839 497.242C852.839 472.025 852.839 446.808 852.839 421.008C866.782 421.008 879.563 421.008 894.058 421.008C894.058 445.017 894.058 468.961 894.076 494.747C894.184 506.676 894.272 516.763 894.161 527.765C894.133 536.17 894.304 543.659 894.291 552.043C893.89 559.026 893.674 565.116 892.497 571.162C872.414 571.988 852.759 574.376 842.993 551.97C841.93 549.532 838.642 548.028 836.536 545.533C835.89 544.284 835.094 543.594 834.147 542.218C829.599 535.809 825.202 530.086 820.517 523.715C812.256 513.381 804.281 503.695 794.709 492.07C794.709 508.766 794.709 522.905 794.508 537.921C794.307 549.351 794.307 559.905 794.307 570.524C779.643 570.524 766.565 570.524 752.049 570.524C752.049 551.496 752.049 533.169 752.049 514.841Z" fill="#3D4753"/>
<path d="M587.366 132.035C586.359 132.477 584.579 132.76 582.348 132.644C583.462 132.122 585.027 131.999 587.366 132.035Z" fill="#5D6870"/>
<path d="M625.419 202.905C625.419 244.419 625.419 285.934 625.419 328.47C629.263 328.686 632.905 329.069 636.547 329.066C662.82 329.05 689.095 328.774 715.362 329.112C718.69 329.155 721.976 332.289 725.277 335.72C725.42 341.572 725.568 345.695 725.716 349.818C725.716 359.066 725.716 368.315 725.716 378.459C670.912 378.459 617.936 378.459 563.082 378.459C563.082 349.825 563.082 321.568 563.079 291.46C562.964 253.989 562.852 218.369 562.74 182.749C562.901 175.975 563.062 169.201 563.231 161.5C563.631 160.48 564.023 160.387 565.733 160.243C568.609 160.073 570.168 159.955 571.727 159.836C586.106 159.979 600.486 160.123 616.677 160.279C624.445 159.685 624.836 163.278 624.84 167.808C624.85 179.507 625.203 191.206 625.419 202.905Z" fill="#3D4753"/>
<path d="M571.498 159.339C570.168 159.954 568.609 160.073 566.287 160.004C567.438 159.492 569.353 159.168 571.498 159.339Z" fill="#647078"/>
<path d="M733.849 57.3593C733.488 56.911 733.262 55.7774 733.373 54.2754C733.803 54.8293 733.893 55.7516 733.849 57.3593Z" fill="#47525C"/>
<path d="M733.757 105.795C733.207 105.806 733.119 105.286 733.519 104.498C733.741 104.594 733.811 104.939 733.757 105.795Z" fill="#47525C"/>
<path d="M710.033 537.231C716.985 546.962 723.416 556.18 729.484 565.624C730.263 566.838 729.155 569.223 727.234 571.085C722.176 571.108 718.74 570.691 715.446 571.184C697.477 573.874 682.394 570.741 674.405 552.457C671.972 548.865 669.538 545.274 666.38 540.637C659.087 526.435 647.77 533.542 637.892 532.209C637.892 539.291 637.892 545.214 637.892 551.137C637.892 557.363 637.892 563.59 637.892 570.422C623.218 570.422 609.855 570.422 595.717 570.422C595.435 567.192 595.154 563.979 594.794 559.004C594.577 530.363 594.44 503.484 594.303 476.605C594.303 458.259 594.303 439.914 594.303 419.256C626.307 420.366 656.563 418.703 685.873 423.111C723.514 428.772 741.711 472.149 722.681 504.848C720.058 509.355 716.211 513.811 711.808 516.553C701.909 522.719 703.176 529.245 710.033 537.231ZM637.361 462.076C637.361 473.66 637.361 485.244 637.361 496.909C649.983 496.909 661.177 497.704 672.189 496.654C680.803 495.833 687.474 485.05 687.19 475.311C686.899 465.355 680.656 457.236 671.203 456.193C661.765 455.153 652.188 455.016 642.682 455.167C640.89 455.195 639.151 458.432 637.361 462.076Z" fill="#3D4753"/>
</svg>
